<svg width="64" height="64" viewBox="0 0 64 64" fill="none" xmlns="http://www.w3.org/2000/svg">
<circle cx="32" cy="32" r="32" fill="#C20114"/>
<path d="M21.3331 47.238C18.8128 47.238 16.7617 45.187 16.7617 42.6666V38.0952H19.8093V19.8095H27.4284V22.8571H22.857V38.0952H39.6189V42.6666C39.6189 43.5062 40.3015 44.1904 41.1427 44.1904C42.0037 44.1904 42.6665 43.5276 42.6665 42.6666V19.8095H45.7141V42.6666C45.7141 45.1732 43.6493 47.238 41.1427 47.238H21.3331ZM21.3331 44.1904H36.8331C36.664 43.7135 36.5712 43.1999 36.5712 42.6666V41.1428H19.8093V42.6666C19.8093 43.5062 20.4935 44.1904 21.3331 44.1904ZM25.9046 35.0476V31.9999H39.6189V35.0476H25.9046ZM25.9046 28.9523V25.9047H28.9522V28.9523H25.9046ZM35.0474 28.9523C32.5407 28.9523 30.476 26.8876 30.476 24.3809C30.476 23.0454 31.0731 21.8481 31.9998 21.0089V15.5357L35.0474 17.4404L38.095 15.5357V21.0089C39.0218 21.8481 39.6189 23.0454 39.6189 24.3809C39.6189 26.8876 37.5541 28.9523 35.0474 28.9523ZM35.0474 25.9047C35.9071 25.9047 36.5712 25.2405 36.5712 24.3809C36.5712 23.5213 35.9071 22.8571 35.0474 22.8571C34.1878 22.8571 33.5236 23.5213 33.5236 24.3809C33.5236 25.2405 34.1878 25.9047 35.0474 25.9047Z" fill="white"/>
</svg>
